<svg width="32" height="24" viewBox="0 0 32 24" fill="none" xmlns="http://www.w3.org/2000/svg">
<path d="M31.7051 19.1836C31.6091 19.6529 31.4219 20.1284 31.1445 20.6084C30.5899 21.5788 29.8437 22.3042 28.9053 22.7842C27.9773 23.2642 26.9471 23.5039 25.8164 23.5039C24.2806 23.5038 22.9638 23.0769 21.8652 22.2236C20.8183 21.4105 20.0962 20.3361 19.6982 19H22.2529C22.4926 19.5208 22.8473 19.9827 23.3213 20.3838C24.0252 20.9597 24.8515 21.248 25.8008 21.248C26.398 21.248 27.0006 21.1042 27.6084 20.8164C28.2271 20.5284 28.7125 20.0529 29.0645 19.3916C29.1297 19.264 29.1867 19.1334 29.2363 19H31.7402C31.7283 19.0613 31.7186 19.1228 31.7051 19.1836ZM2.44727 23.04H0L1.3916 19H3.83984L2.44727 23.04ZM18.9912 23.04H16.5439L15.1426 19H17.5996L18.9912 23.04ZM16.2217 15H13.7559L9.47266 2.65332L5.21875 15H2.76953L7.93555 0H11.0557L16.2217 15ZM31.8965 15H29.5293V0H31.8965V15Z" fill="#1DB954"/>
</svg>
